<svg xmlns="http://www.w3.org/2000/svg" viewBox="0 0 100 100"><g fill="#c98a2b"><ellipse cx="73.05" cy="54.58" rx="3.9" ry="14.5" transform="rotate(101.2 73.05 54.58)"/><ellipse cx="69.54" cy="63.06" rx="3.9" ry="14.5" transform="rotate(123.8 69.54 63.06)"/><ellipse cx="63.06" cy="69.54" rx="3.9" ry="14.5" transform="rotate(146.2 63.06 69.54)"/><ellipse cx="54.58" cy="73.05" rx="3.9" ry="14.5" transform="rotate(168.8 54.58 73.05)"/><ellipse cx="45.42" cy="73.05" rx="3.9" ry="14.5" transform="rotate(191.2 45.42 73.05)"/><ellipse cx="36.94" cy="69.54" rx="3.9" ry="14.5" transform="rotate(213.8 36.94 69.54)"/><ellipse cx="30.46" cy="63.06" rx="3.9" ry="14.5" transform="rotate(236.2 30.46 63.06)"/><ellipse cx="26.95" cy="54.58" rx="3.9" ry="14.5" transform="rotate(258.8 26.95 54.58)"/><ellipse cx="26.95" cy="45.42" rx="3.9" ry="14.5" transform="rotate(281.2 26.95 45.42)"/><ellipse cx="30.46" cy="36.94" rx="3.9" ry="14.5" transform="rotate(303.8 30.46 36.94)"/><ellipse cx="36.94" cy="30.46" rx="3.9" ry="14.5" transform="rotate(326.2 36.94 30.46)"/><ellipse cx="45.42" cy="26.95" rx="3.9" ry="14.5" transform="rotate(348.8 45.42 26.95)"/><ellipse cx="54.58" cy="26.95" rx="3.9" ry="14.5" transform="rotate(11.2 54.58 26.95)"/><ellipse cx="63.06" cy="30.46" rx="3.9" ry="14.5" transform="rotate(33.8 63.06 30.46)"/><ellipse cx="69.54" cy="36.94" rx="3.9" ry="14.5" transform="rotate(56.2 69.54 36.94)"/><ellipse cx="73.05" cy="45.42" rx="3.9" ry="14.5" transform="rotate(78.8 73.05 45.42)"/></g><g fill="#e8b40c"><ellipse cx="71.00" cy="50.00" rx="4.1" ry="13.0" transform="rotate(90.0 71.00 50.00)"/><ellipse cx="69.40" cy="58.04" rx="4.1" ry="13.0" transform="rotate(112.5 69.40 58.04)"/><ellipse cx="64.85" cy="64.85" rx="4.1" ry="13.0" transform="rotate(135.0 64.85 64.85)"/><ellipse cx="58.04" cy="69.40" rx="4.1" ry="13.0" transform="rotate(157.5 58.04 69.40)"/><ellipse cx="50.00" cy="71.00" rx="4.1" ry="13.0" transform="rotate(180.0 50.00 71.00)"/><ellipse cx="41.96" cy="69.40" rx="4.1" ry="13.0" transform="rotate(202.5 41.96 69.40)"/><ellipse cx="35.15" cy="64.85" rx="4.1" ry="13.0" transform="rotate(225.0 35.15 64.85)"/><ellipse cx="30.60" cy="58.04" rx="4.1" ry="13.0" transform="rotate(247.5 30.60 58.04)"/><ellipse cx="29.00" cy="50.00" rx="4.1" ry="13.0" transform="rotate(270.0 29.00 50.00)"/><ellipse cx="30.60" cy="41.96" rx="4.1" ry="13.0" transform="rotate(292.5 30.60 41.96)"/><ellipse cx="35.15" cy="35.15" rx="4.1" ry="13.0" transform="rotate(315.0 35.15 35.15)"/><ellipse cx="41.96" cy="30.60" rx="4.1" ry="13.0" transform="rotate(337.5 41.96 30.60)"/><ellipse cx="50.00" cy="29.00" rx="4.1" ry="13.0" transform="rotate(0.0 50.00 29.00)"/><ellipse cx="58.04" cy="30.60" rx="4.1" ry="13.0" transform="rotate(22.5 58.04 30.60)"/><ellipse cx="64.85" cy="35.15" rx="4.1" ry="13.0" transform="rotate(45.0 64.85 35.15)"/><ellipse cx="69.40" cy="41.96" rx="4.1" ry="13.0" transform="rotate(67.5 69.40 41.96)"/></g><circle cx="50" cy="50" r="10.5" fill="#a16207"/><circle cx="50" cy="50" r="7.0" fill="#8a6200"/><g fill="#5c4100"><circle cx="50" cy="50" r="1.6"/><circle cx="53.40" cy="50.00" r="1.45"/><circle cx="51.70" cy="52.94" r="1.45"/><circle cx="48.30" cy="52.94" r="1.45"/><circle cx="46.60" cy="50.00" r="1.45"/><circle cx="48.30" cy="47.06" r="1.45"/><circle cx="51.70" cy="47.06" r="1.45"/></g></svg>